<?xml version="1.0" encoding="UTF-8"?>
<svg width="458px" height="458px" viewBox="0 0 458 458" version="1.1" xmlns="http://www.w3.org/2000/svg" xmlns:xlink="http://www.w3.org/1999/xlink">
    <!-- Generator: Sketch 46.2 (44496) - http://www.bohemiancoding.com/sketch -->
    <title>ZD</title>
    <desc>Created with Sketch.</desc>
    <defs>
        <linearGradient x1="50%" y1="0%" x2="50%" y2="140.139274%" id="linearGradient-1">
            <stop stop-color="#FFFFFF" stop-opacity="0" offset="1.67610013%"></stop>
            <stop stop-color="#8D8D8D" stop-opacity="0" offset="100%"></stop>
        </linearGradient>
        <path d="M140.703759,0 L0,0 L0,458 L358,458 C413.228475,458 458,413.228475 458,358 L458,100 C458,77.2777038 450.421553,56.3254487 437.654374,39.5329498 L252.098647,274.38358 L324.601353,274.38358 C337.085326,274.38358 347.888601,272.998444 357.011504,270.228129 C366.134407,267.457815 373.89676,262.646288 380.298797,255.793405 C386.700834,248.940522 391.822387,239.75488 395.663609,228.236205 C399.504831,216.717529 402.385705,202.355851 404.306316,185.15074 L448,188.212651 L435.996241,319 L128.7,319 L128.7,277.008075 L323.160902,38.6164199 L247.777293,38.6164199 C236.253627,38.6164199 226.730739,40.0015564 219.208346,42.7718708 C211.685952,45.5421852 205.524084,50.3537118 200.722556,57.2065949 C195.921029,64.059478 192.159888,73.3180215 189.439023,84.9825034 C186.718157,96.6469852 184.397453,111.373173 182.476842,129.161507 L140.703759,127.84926 L140.703759,2.22044605e-15 Z" id="path-2"></path>
    </defs>
    <g id="Welcome" stroke="none" stroke-width="1" fill="none" fill-rule="evenodd">
        <g id="Desktop-HD" transform="translate(-92.000000, -283.000000)">
            <g id="ZD" transform="translate(92.000000, 283.000000)">
                <g id="Combined-Shape">
                    <use fill="url(#linearGradient-1)" fill-rule="evenodd" xlink:href="#path-2"></use>
                    <path stroke="#000000" stroke-width="16" d="M450,180.333186 L450,100 C450,83.2033338 445.493082,67.1050998 437.151793,53.0733654 L268.615171,266.38358 L324.601353,266.38358 C336.343051,266.38358 346.375081,265.097328 354.686989,262.573286 C362.469439,260.210021 369.015565,256.152378 374.452914,250.332118 C380.011897,244.381659 384.576371,236.195154 388.074472,225.705396 C391.719678,214.774512 394.493138,200.948312 396.3557,184.263211 L397.20739,176.633652 L450,180.333186 Z M450,253.952198 L443.295619,327 L120.7,327 L120.7,274.159024 L306.311111,46.6164199 L247.777293,46.6164199 C237.129324,46.6164199 228.516426,47.8691954 221.973028,50.2789697 C215.998692,52.4791723 211.150768,56.2646983 207.274386,61.7971868 C203.120702,67.7254476 199.735232,76.059229 197.229877,86.799804 C194.591226,98.1118296 192.319008,112.530347 190.430616,130.020278 L189.634871,137.390314 L132.703759,135.601896 L132.703759,8 L8,8 L8,450 L358,450 C408.810197,450 450,408.810197 450,358 L450,253.952198 Z M450,253.952198 L450,180.333186 L456.713627,180.803655 L450,253.952198 Z"></path>
                </g>
            </g>
        </g>
    </g>
</svg>